<svg version="1.1" viewBox="0 0 24 24" xmlns="http://www.w3.org/2000/svg">
  <defs>
    <clipPath id="clip">
      <path d="m1 2v20h22v-20zm10.939 5a4 4 0 0 1 0.061 0 4 4 0 0 1 4 4 4 4 0 0 1-4 4 4 4 0 0 1-4-4 4 4 0 0 1 3.939-4z"/>
    </clipPath>
  </defs>
  <path fill="#b9b8b130" d="m12 12-3.326-1.66a4 4 0 0 1 3.326-1.7794 4 4 0 0 1 3.326 1.7794z"/>
  <path fill="#b9b8b130" d="m12.5 16.53v-3.66l3.273-1.64a4 4 0 0 1 0.227 1.33 4 4 0 0 1-3.5 3.97z"/>
  <path fill="#b9b8b130" d="m11.5 16.53a4 4 0 0 1-3.5-3.97 4 4 0 0 1 0.227-1.33l3.273 1.64z"/>
  <g fill="none" stroke="#b9b8b130" transform="matrix(1,0,0,-1,0,23.56)" clip-path="url(#clip)">
    <circle r="4" cx="15.586" cy="8.7843"/>
    <circle r="4" transform="scale(-1,1)" cx="-8.414" cy="8.7843"/>
    <circle r="4" cx="12.017" cy="14.73"/>
  </g>
</svg>
