<?xml version="1.0" encoding="UTF-8" standalone="no"?>
<svg
    xmlns:dc="http://purl.org/dc/elements/1.1/"
    xmlns:cc="http://creativecommons.org/ns#"
    xmlns:rdf="http://www.w3.org/1999/02/22-rdf-syntax-ns#"
    xmlns="http://www.w3.org/2000/svg"
    xmlns:sodipodi="http://sodipodi.sourceforge.net/DTD/sodipodi-0.dtd"
    xmlns:inkscape="http://www.inkscape.org/namespaces/inkscape"
    version="1.1"
    viewBox="0 0 512 256"
    width="512"
    height="256"
    id="svg36"
    sodipodi:docname="logo - Copy.svg"
    inkscape:version="1.0.2-2 (e86c870879, 2021-01-15)">
  <metadata
     id="metadata40">
    <rdf:RDF>
      <cc:Work
         rdf:about="">
        <dc:format>image/svg+xml</dc:format>
        <dc:type
           rdf:resource="http://purl.org/dc/dcmitype/StillImage" />
        <dc:title></dc:title>
      </cc:Work>
    </rdf:RDF>
  </metadata>
  <sodipodi:namedview
     pagecolor="#ffffff"
     bordercolor="#999999"
     borderopacity="1"
     objecttolerance="10"
     gridtolerance="10"
     guidetolerance="10"
     inkscape:pageopacity="0"
     inkscape:pageshadow="2"
     inkscape:window-width="1920"
     inkscape:window-height="1017"
     id="namedview38"
     showgrid="false"
     inkscape:zoom="1.1289"
     inkscape:cx="256"
     inkscape:cy="128"
     inkscape:window-x="-8"
     inkscape:window-y="-8"
     inkscape:window-maximized="1"
     inkscape:current-layer="svg36" />
  <defs
     id="defs20">
    <linearGradient
       id="linearGradient2166"
       x1="12"
       x2="12"
       y1="12"
       y2="17"
       gradientTransform="matrix(12.847,0,0,-12.847,-46.367,257.03)"
       gradientUnits="userSpaceOnUse">
      <stop
         stop-color="#75d305"
         offset="0"
         id="stop2" />
      <stop
         stop-color="#8bf907"
         offset="1"
         id="stop4" />
    </linearGradient>
    <linearGradient
       id="linearGradient2158"
       x1="12.5"
       x2="17"
       y1="11.13"
       y2="8"
       gradientTransform="matrix(12.847,0,0,-12.847,-46.367,257.03)"
       gradientUnits="userSpaceOnUse">
      <stop
         stop-color="#e7c205"
         offset="0"
         id="stop7" />
      <stop
         stop-color="#fff41c"
         offset="1"
         id="stop9" />
    </linearGradient>
    <linearGradient
       id="linearGradient2174"
       x1="11.5"
       x2="7"
       y1="11.13"
       y2="8"
       gradientTransform="matrix(12.847,0,0,-12.847,-46.367,257.03)"
       gradientUnits="userSpaceOnUse">
      <stop
         stop-color="#3d99fd"
         offset="0"
         id="stop12" />
      <stop
         stop-color="#4accff"
         offset="1"
         id="stop14" />
    </linearGradient>
    <clipPath
       id="clip">
      <path
         d="M 1,2 V 22 H 23 V 2 Z M 11.939,7 A 4,4 0 0 1 12,7 A 4,4 0 0 1 16,11 A 4,4 0 0 1 12,15 A 4,4 0 0 1 8,11 A 4,4 0 0 1 11.939,7 Z"
         id="path17" />
    </clipPath>
  </defs>
  <g
     id="g872"
     transform="translate(148.2,27.674)">
    <path
       fill="url(#linearGradient2166)"
       d="M 107.79,102.86 L 65.063,81.537 A 51.386,51.386 0 0 1 107.79,58.678 A 51.386,51.386 0 0 1 150.52,81.537 Z"
       id="path22"
       style="fill:url(#linearGradient2166);stroke-width:12.8465" />
    <path
       fill="url(#linearGradient2158)"
       d="M 114.21,161.06 V 114.04 L 156.26,92.971 A 51.386,51.386 0 0 1 159.18,110.06 A 51.386,51.386 0 0 1 114.21,161.06 Z"
       id="path24"
       style="fill:url(#linearGradient2158);stroke-width:12.8465" />
    <path
       fill="url(#linearGradient2174)"
       d="M 101.37,161.06 A 51.386,51.386 0 0 1 56.405,110.06 A 51.386,51.386 0 0 1 59.321,92.971 L 101.37,114.04 Z"
       id="path26"
       style="fill:url(#linearGradient2174);stroke-width:12.8465" />
    <g
       fill="none"
       transform="matrix(12.847,0,0,-12.847,-46.367,251.37)"
       clip-path="url(#clip)"
       id="g34">
      <circle
         r="4"
         stroke="#e7c205"
         cx="15.586"
         cy="8.7843"
         id="circle28" />
      <circle
         r="4"
         stroke="#3d99fd"
         transform="scale(-1,1)"
         cx="-8.414"
         cy="8.7843"
         id="circle30" />
      <circle
         r="4"
         stroke="#75d305"
         cx="12.017"
         cy="14.73"
         id="circle32" />
    </g>
  </g>
  <text
     fill="#000000"
     x="14.026"
     y="-39.264"
     font-family="Roboto"
     font-size="21.334px"
     xml:space="preserve"
     id="text23"
     style="stroke-width:10.667">     <tspan
   id="tspan21"
   style="stroke-width:10.667">Export the page as a PNG with size 1280 by 640</tspan>  </text>
</svg>
