<svg version="1.1" viewBox="0 0 65.633 45.661" xmlns="http://www.w3.org/2000/svg">
  <defs>
    <radialGradient id="radialGradient1415-6-8" cx="12" cy="12" r="9.8298" gradientTransform="matrix(1,0,0,1.0001,20.817,-2.1704)" gradientUnits="userSpaceOnUse">
      <stop stop-color="#dd8622" offset="0"/>
      <stop stop-color="#dd6f24" offset="1"/>
    </radialGradient>
  </defs>
  <g transform="translate(20.528,-1.2284)" fill="none" stroke="#dd7723" stroke-linecap="round">
    <path d="m-16.032 25.39a1 1 0 0 0 0.87-0.5 1 1 0 0 0 0-1 1 1 0 0 0-0.87-0.5m0 4a2 2 0 0 1-1.73-1 2 2 0 0 1 0-2 2 2 0 0 1 1.73-1m0 4a3 3 0 0 0 2.6-1.5 3 3 0 0 0 0-3 3 3 0 0 0-2.6-1.5m0 8a4 4 0 0 1-3.46-2 4 4 0 0 1 0-4 4 4 0 0 1 3.46-2m0 12a1 1 0 0 0-0.87 0.5 1 1 0 0 0 0 1 1 1 0 0 0 0.87 0.5m0-4a2 2 0 0 1 1.73 1 2 2 0 0 1 0 2 2 2 0 0 1-1.73 1m0-4a3 3 0 0 0-2.6 1.5 3 3 0 0 0 0 3 3 3 0 0 0 2.6 1.5m0-8a4 4 0 0 1 3.46 2 4 4 0 0 1 0 4 4 4 0 0 1-3.46 2" stop-color="#000000"/>
    <path d="m-6.062 32.39v3m2-3v3m-2-3a1 1 0 0 0-0.5-0.87 1 1 0 0 0-1 0 1 1 0 0 0-0.5 0.87m4 3a2 2 0 0 1-1 1.73 2 2 0 0 1-2 0 2 2 0 0 1-1-1.73m-2-3a3 3 0 0 1 3-3 3 3 0 0 1 3 3m-6-10v15m2-2v-3" stop-color="#000000"/>
    <path d="m11.608 32.39v3m-2 0v-3m4 0v3m-2-3a1 1 0 0 0-0.5-0.87 1 1 0 0 0-1 0 1 1 0 0 0-0.5 0.87m4 3a2 2 0 0 1-1 1.73 2 2 0 0 1-2 0 2 2 0 0 1-1-1.73m-2-3a3 3 0 0 1 3-3 3 3 0 0 1 3 3m-6-4v9" stop-color="#000000"/>
    <path d="m42.605 23.39a1 1 0 0 0-0.5-0.87 1 1 0 0 0-1 0 1 1 0 0 0-0.5 0.87m4 13a1 1 0 0 1-0.5 0.87 1 1 0 0 1-1 0 1 1 0 0 1-0.5-0.87m0-13v13" stop-color="#000000"/>
    <g>
      <path transform="scale(-1,1)" d="m-18.608 37.39a4 4 0 0 1-2.828-1.172 4 4 0 0 1-1.172-2.828" stop-color="#000000"/>
      <path d="m22.608 42.39a4 4 0 0 1-2 3.464 4 4 0 0 1-4 0 4 4 0 0 1-2-3.464" stop-color="#000000"/>
      <path transform="scale(1,-1)" d="m20.608-42.39a3 3 0 0 1-1.5 2.598 3 3 0 0 1-3 0 3 3 0 0 1-1.5-2.598" stop-color="#000000"/>
      <path d="m20.608 42.39a2 2 0 0 1-1 1.732 2 2 0 0 1-2 0 2 2 0 0 1-1-1.732" stop-color="#000000"/>
      <path transform="scale(1,-1)" d="m18.608-42.39a1 1 0 0 1-0.5 0.866 1 1 0 0 1-1 0 1 1 0 0 1-0.5-0.866" stop-color="#000000"/>
      <path d="m16.108 30.06a5 5 0 0 1 2.5-0.67" stop-color="#000000"/>
      <path d="m18.608 37.39a3 3 0 0 1-2.598-1.5 3 3 0 0 1 0-3 3 3 0 0 1 2.598-1.5" stop-color="#000000"/>
      <path d="m18.608 29.39a4 4 0 0 1 4 4" stop-color="#000000"/>
      <path transform="scale(-1,1)" d="m-18.608 35.39a2 2 0 0 1-1.732-1 2 2 0 0 1 0-2 2 2 0 0 1 1.732-1" stop-color="#000000"/>
      <path d="m18.608 35.39a1 1 0 0 1-0.866-0.5 1 1 0 0 1 0-1 1 1 0 0 1 0.866-0.5" stop-color="#000000"/>
      <path d="m22.608 33.39v9" stop-color="#000000"/>
    </g>
    <path d="m4.938 36.39v-3m-6.5-3.33a5 5 0 0 1 2.5-0.67m5 8a1 1 0 0 1-0.71-0.29 1 1 0 0 1-0.29-0.71m-4 1a4 4 0 0 0 2.83-1.17 4 4 0 0 0 1.17-2.83m-4 2a1 1 0 0 1-0.87-0.5 1 1 0 0 1 0-1 1 1 0 0 1 0.87-0.5m0 2a2 2 0 0 0 1.73-1 2 2 0 0 0 0-2 2 2 0 0 0-1.73-1m0-2a4 4 0 0 1 4 4m-4 4a3 3 0 0 1-2.6-1.5 3 3 0 0 1 0-3 3 3 0 0 1 2.6-1.5" stop-color="#000000"/>
    <path d="m28.636 37.254a5 5 0 0 1-3.793-0.495m2.758-3.369a1 1 0 0 1-0.966-0.259 1 1 0 0 1-0.259-0.966 1 1 0 0 1 0.707-0.707m1.034 3.865a2.0003 2.0003 0 0 0 1.414-1.415 2.0003 2.0003 0 0 0-0.518-1.931 2.0003 2.0003 0 0 0-1.932-0.518m1.038 3.863a3 3 0 0 1-2.898-0.776 3 3 0 0 1-0.776-2.898 3 3 0 0 1 2.121-2.121 4 4 0 0 1 4.899 2.828 4 4 0 0 1-2.829 4.899" stop-color="#000000"/>
    <path d="m37.633 37.254a5 5 0 0 1-3.793-0.495m2.758-3.368a1 1 0 0 1-0.966-0.259 1 1 0 0 1-0.259-0.966 1 1 0 0 1 0.707-0.707m1.034 3.864a2.0003 2.0003 0 0 0 1.414-1.414 2.0003 2.0003 0 0 0-0.518-1.932 2.0003 2.0003 0 0 0-1.932-0.518m1.038 3.864a3 3 0 0 1-2.898-0.777 3 3 0 0 1-0.777-2.898 3 3 0 0 1 2.122-2.121 4 4 0 0 1 4.899 2.828 4 4 0 0 1-2.829 4.899" stop-color="#000000"/>
  </g>
  <path d="m29.354 11.831a4 4 0 0 1 4 0 4 4 0 0 1 2 3.464 4 4 0 0 1-2 3.464m-2.002-3.463a1 1 0 0 0-0.5 0.866 1 1 0 0 0 0.5 0.866 1 1 0 0 0 1 0m-1.999-3.465a2 2 0 0 1 2 0 2 2 0 0 1 1 1.733 2 2 0 0 1-1 1.732m-2.001-3.465a3 3 0 0 0-1.5 2.599 3 3 0 0 0 1.5 2.598 3 3 0 0 0 3 0m-2.534-12.394a4 4 0 0 1 0 4.0004 4 4 0 0 1-3.464 2 4 4 0 0 1-3.464-2m14.391 0.929a1 1 0 0 0 0.866 0.5 1 1 0 0 0 0.866-0.5 1 1 0 0 0 0-1m-3.464 2a2 2 0 0 1 0-2 2 2 0 0 1 1.732-1.0004 2 2 0 0 1 1.732 1.0004m-3.464 2a3 3 0 0 0 2.598 1.5 3 3 0 0 0 2.598-1.5 3 3 0 0 0 0-3.0004m-6.928 4.0004a4 4 0 0 1 0-4.0004 4 4 0 0 1 3.464-2 4 4 0 0 1 3.464 2m-14.392-0.929a1 1 0 0 0-0.866-0.5 1 1 0 0 0-0.866 0.5 1 1 0 0 0 0 1m3.465-2a2 2 0 0 1 0 2 2 2 0 0 1-1.732 1.0004 2 2 0 0 1-1.732-1.0004m3.463-2a3 3 0 0 0-2.598-1.5 3 3 0 0 0-2.598 1.5 3 3 0 0 0 0 3.0004m10.392-6.0004a1 1 0 0 0 0.5-0.866 1 1 0 0 0-0.5-0.866 1 1 0 0 0-1 0m2.001 3.464a2 2 0 0 1-2 0 2 2 0 0 1-1-1.732 2 2 0 0 1 1-1.732m1.999 3.464a3 3 0 0 0 1.5-2.598 3 3 0 0 0-1.5-2.598 3 3 0 0 0-3 0m4.001 6.928a4 4 0 0 1-4 0 4 4 0 0 1-2-3.464 4 4 0 0 1 2-3.464" fill="none" stop-color="#000000" stroke="url(#radialGradient1415-6-8)" stroke-linecap="round"/>
</svg>
