<?xml version="1.0" encoding="UTF-8" standalone="no"?>
<svg
    xmlns:dc="http://purl.org/dc/elements/1.1/"
    xmlns:cc="http://creativecommons.org/ns#"
    xmlns:rdf="http://www.w3.org/1999/02/22-rdf-syntax-ns#"
    xmlns="http://www.w3.org/2000/svg"
    xmlns:xlink="http://www.w3.org/1999/xlink"
    xmlns:sodipodi="http://sodipodi.sourceforge.net/DTD/sodipodi-0.dtd"
    xmlns:inkscape="http://www.inkscape.org/namespaces/inkscape"
    width="24"
    height="24"
    version="1.1"
    viewBox="0 0 24 24"
    id="svg4"
    sodipodi:docname="logo-prototypes.svg"
    inkscape:version="1.0.2-2 (e86c870879, 2021-01-15)">
  <metadata
     id="metadata10">
    <rdf:RDF>
      <cc:Work
         rdf:about="">
        <dc:format>image/svg+xml</dc:format>
        <dc:type
           rdf:resource="http://purl.org/dc/dcmitype/StillImage" />
        <dc:title></dc:title>
      </cc:Work>
    </rdf:RDF>
  </metadata>
  <defs
     id="defs8">
    <linearGradient
       inkscape:collect="always"
       id="linearGradient917">
      <stop
         style="stop-color:#ca1818;stop-opacity:1"
         offset="0"
         id="stop913" />
      <stop
         style="stop-color:#d5913e;stop-opacity:1"
         offset="1"
         id="stop915" />
    </linearGradient>
    <linearGradient
       inkscape:collect="always"
       id="linearGradient897">
      <stop
         style="stop-color:#b52d9d;stop-opacity:1"
         offset="0"
         id="stop895" />
      <stop
         style="stop-color:#d04343;stop-opacity:1"
         offset="1"
         id="stop893" />
    </linearGradient>
    <linearGradient
       inkscape:collect="always"
       id="linearGradient877">
      <stop
         style="stop-color:#5443d0;stop-opacity:1"
         offset="0"
         id="stop875" />
      <stop
         style="stop-color:#762db5;stop-opacity:1"
         offset="1"
         id="stop873" />
    </linearGradient>
    <linearGradient
       inkscape:collect="always"
       id="linearGradient853">
      <stop
         style="stop-color:#973c61;stop-opacity:1"
         offset="0"
         id="stop849" />
      <stop
         style="stop-color:#d0437c;stop-opacity:1"
         offset="1"
         id="stop851" />
    </linearGradient>
    <linearGradient
       inkscape:collect="always"
       xlink:href="#linearGradient853"
       id="linearGradient855"
       x1="11.97"
       y1="8.5864"
       x2="20.313"
       y2="0.244"
       gradientUnits="userSpaceOnUse"
       gradientTransform="matrix(1.012,0,0,1.0121,-0.24409,-0.14483)" />
    <linearGradient
       inkscape:collect="always"
       xlink:href="#linearGradient877"
       id="linearGradient887"
       x1="9.041"
       y1="0.26932"
       x2="25.867"
       y2="0.26932"
       gradientUnits="userSpaceOnUse" />
    <linearGradient
       inkscape:collect="always"
       xlink:href="#linearGradient877"
       id="linearGradient889"
       x1="9.0409"
       y1="-28.875"
       x2="25.867"
       y2="-28.875"
       gradientUnits="userSpaceOnUse" />
    <linearGradient
       inkscape:collect="always"
       xlink:href="#linearGradient897"
       id="linearGradient891"
       x1="-34.28"
       y1="-14.303"
       x2="-17.454"
       y2="-14.303"
       gradientUnits="userSpaceOnUse" />
    <linearGradient
       inkscape:collect="always"
       xlink:href="#linearGradient877"
       id="linearGradient907"
       gradientUnits="userSpaceOnUse"
       x1="9.041"
       y1="0.26932"
       x2="25.867"
       y2="0.26932"
       gradientTransform="translate(31.047)" />
    <linearGradient
       inkscape:collect="always"
       xlink:href="#linearGradient877"
       id="linearGradient909"
       gradientUnits="userSpaceOnUse"
       x1="9.0409"
       y1="-28.875"
       x2="25.867"
       y2="-28.875"
       gradientTransform="translate(31.047)" />
    <linearGradient
       inkscape:collect="always"
       xlink:href="#linearGradient917"
       id="linearGradient911"
       gradientUnits="userSpaceOnUse"
       x1="-34.28"
       y1="-14.303"
       x2="-17.454"
       y2="-14.303"
       gradientTransform="translate(-31.047)" />
    <linearGradient
       inkscape:collect="always"
       xlink:href="#linearGradient877"
       id="linearGradient925"
       gradientUnits="userSpaceOnUse"
       gradientTransform="matrix(1,0,0,1,70.44,-6.1487)"
       x1="9.041"
       y1="0.26932"
       x2="25.867"
       y2="0.26932" />
    <linearGradient
       inkscape:collect="always"
       xlink:href="#linearGradient877"
       id="linearGradient933"
       gradientUnits="userSpaceOnUse"
       gradientTransform="matrix(1,0,0,1,-79.116,-80.736)"
       x1="9.041"
       y1="0.26932"
       x2="25.867"
       y2="0.26932" />
    <linearGradient
       inkscape:collect="always"
       xlink:href="#linearGradient877"
       id="linearGradient939"
       gradientUnits="userSpaceOnUse"
       gradientTransform="matrix(1,0,0,1,63.01,-22.122)"
       x1="9.041"
       y1="0.26932"
       x2="25.867"
       y2="0.26932" />
    <linearGradient
       inkscape:collect="always"
       xlink:href="#linearGradient877"
       id="linearGradient941"
       gradientUnits="userSpaceOnUse"
       gradientTransform="matrix(1,0,0,1,-51.386,87.628)"
       x1="9.041"
       y1="0.26932"
       x2="25.867"
       y2="0.26932" />
    <linearGradient
       inkscape:collect="always"
       xlink:href="#linearGradient877"
       id="linearGradient951"
       gradientUnits="userSpaceOnUse"
       gradientTransform="matrix(1,0,0,1,-137.75,61.383)"
       x1="9.041"
       y1="0.26932"
       x2="25.867"
       y2="0.26932" />
    <linearGradient
       inkscape:collect="always"
       xlink:href="#linearGradient877"
       id="linearGradient953"
       gradientUnits="userSpaceOnUse"
       gradientTransform="matrix(1,0,0,1,-23.327,-127.98)"
       x1="9.041"
       y1="0.26932"
       x2="25.867"
       y2="0.26932" />
    <linearGradient
       inkscape:collect="always"
       xlink:href="#linearGradient877"
       id="linearGradient955"
       gradientUnits="userSpaceOnUse"
       gradientTransform="matrix(1,0,0,1,4.3902,120.02)"
       x1="9.041"
       y1="0.26932"
       x2="25.867"
       y2="0.26932" />
    <linearGradient
       inkscape:collect="always"
       xlink:href="#linearGradient877"
       id="linearGradient957"
       gradientUnits="userSpaceOnUse"
       gradientTransform="matrix(1,0,0,1,-145.17,-34.206)"
       x1="9.041"
       y1="0.26932"
       x2="25.867"
       y2="0.26932" />
    <radialGradient
       inkscape:collect="always"
       xlink:href="#linearGradient917"
       id="radialGradient959"
       cx="-108"
       cy="14.22"
       fx="-108"
       fy="14.22"
       r="16.826"
       gradientUnits="userSpaceOnUse" />
    <linearGradient
       inkscape:collect="always"
       xlink:href="#linearGradient897"
       id="linearGradient991"
       gradientUnits="userSpaceOnUse"
       gradientTransform="translate(-194.88,64.321)"
       x1="9.041"
       y1="0.26932"
       x2="25.867"
       y2="0.26932" />
    <linearGradient
       inkscape:collect="always"
       xlink:href="#linearGradient897"
       id="linearGradient993"
       gradientUnits="userSpaceOnUse"
       gradientTransform="translate(2.6898,-178.92)"
       x1="9.041"
       y1="0.26932"
       x2="25.867"
       y2="0.26932" />
    <linearGradient
       inkscape:collect="always"
       xlink:href="#linearGradient877"
       id="linearGradient995"
       gradientUnits="userSpaceOnUse"
       gradientTransform="matrix(1,0,0,1,26.594,171.98)"
       x1="9.041"
       y1="0.26932"
       x2="25.867"
       y2="0.26932" />
    <linearGradient
       inkscape:collect="always"
       xlink:href="#linearGradient877"
       id="linearGradient997"
       gradientUnits="userSpaceOnUse"
       gradientTransform="matrix(1,0,0,1,-201.27,-40.957)"
       x1="9.041"
       y1="0.26932"
       x2="25.867"
       y2="0.26932" />
    <linearGradient
       inkscape:collect="always"
       xlink:href="#linearGradient897"
       id="linearGradient999"
       gradientUnits="userSpaceOnUse"
       gradientTransform="translate(134.72,-50.296)"
       x1="9.041"
       y1="0.26932"
       x2="25.867"
       y2="0.26932" />
    <linearGradient
       inkscape:collect="always"
       xlink:href="#linearGradient897"
       id="linearGradient1001"
       gradientUnits="userSpaceOnUse"
       gradientTransform="translate(-62.84,163.82)"
       x1="9.041"
       y1="0.26932"
       x2="25.867"
       y2="0.26932" />
    <linearGradient
       inkscape:collect="always"
       xlink:href="#linearGradient877"
       id="linearGradient1003"
       gradientUnits="userSpaceOnUse"
       gradientTransform="matrix(1,0,0,1,-86.747,-157.95)"
       x1="9.041"
       y1="0.26932"
       x2="25.867"
       y2="0.26932" />
    <linearGradient
       inkscape:collect="always"
       xlink:href="#linearGradient877"
       id="linearGradient1005"
       gradientUnits="userSpaceOnUse"
       gradientTransform="matrix(1,0,0,1,141.12,25.848)"
       x1="9.041"
       y1="0.26932"
       x2="25.867"
       y2="0.26932" />
  </defs>
  <sodipodi:namedview
     pagecolor="#ffffff"
     bordercolor="#999999"
     borderopacity="1"
     objecttolerance="10"
     gridtolerance="10"
     guidetolerance="10"
     inkscape:pageopacity="0"
     inkscape:pageshadow="2"
     inkscape:window-width="1920"
     inkscape:window-height="1017"
     id="namedview6"
     showgrid="false"
     inkscape:zoom="2.1864"
     inkscape:cx="-221.59"
     inkscape:cy="-82.226"
     inkscape:window-x="-8"
     inkscape:window-y="-8"
     inkscape:window-maximized="1"
     inkscape:current-layer="svg4"
     inkscape:document-rotation="0"
     inkscape:snap-center="true" />
  <rect
     style="fill:url(#linearGradient855);fill-opacity:1;stroke-width:6.00004;stop-color:#000000"
     id="rect837"
     width="11.898"
     height="11.898"
     x="8.4152"
     y="0.10212" />
  <path
     style="fill:#d0437c;fill-opacity:1;stroke-width:6;stop-color:#000000"
     id="path857"
     sodipodi:type="arc"
     sodipodi:cx="20.313"
     sodipodi:cy="12"
     sodipodi:rx="16.826"
     sodipodi:ry="16.826"
     sodipodi:start="2.3562"
     sodipodi:end="3.927"
     sodipodi:arc-type="slice"
     d="M 8.4152,23.898 A 16.826,16.826 0 0 1 3.487,12 A 16.826,16.826 0 0 1 8.4153,0.10211 L 20.313,12 Z" />
  <path
     style="fill:url(#linearGradient891);fill-opacity:1;stroke-width:6;stop-color:#000000"
     id="path835"
     sodipodi:type="arc"
     sodipodi:cx="-17.454"
     sodipodi:cy="-14.303"
     sodipodi:rx="16.826"
     sodipodi:ry="16.826"
     sodipodi:start="2.0944"
     sodipodi:end="4.1888"
     sodipodi:arc-type="slice"
     d="M -25.867,0.2687 A 16.826,16.826 0 0 1 -34.28,-14.303 A 16.826,16.826 0 0 1 -25.867,-28.875 L -17.454,-14.303 Z"
     transform="rotate(90)" />
  <path
     style="fill:url(#linearGradient889);fill-opacity:1;stroke-width:6;stop-color:#000000"
     id="path869"
     sodipodi:type="arc"
     sodipodi:cx="25.867"
     sodipodi:cy="-28.875"
     sodipodi:rx="16.826"
     sodipodi:ry="16.826"
     sodipodi:start="2.0944"
     sodipodi:end="4.1888"
     sodipodi:arc-type="slice"
     d="M 17.454,-14.303 A 16.826,16.826 0 0 1 9.0409,-28.875 A 16.826,16.826 0 0 1 17.454,-43.447 L 25.867,-28.875 Z"
     transform="matrix(0,-1,-1,0,0,0)" />
  <path
     style="fill:url(#linearGradient887);fill-opacity:1;stroke-width:6;stop-color:#000000"
     id="path881"
     sodipodi:type="arc"
     sodipodi:cx="25.867"
     sodipodi:cy="0.26938"
     sodipodi:rx="16.826"
     sodipodi:ry="16.826"
     sodipodi:start="2.0944"
     sodipodi:end="4.1888"
     sodipodi:arc-type="slice"
     d="M 17.454,14.841 A 16.826,16.826 0 0 1 9.041,0.26926 A 16.826,16.826 0 0 1 17.454,-14.302 L 25.867,0.26938 Z"
     transform="matrix(0,-1,-1,0,0,0)" />
  <path
     style="fill:url(#linearGradient911);fill-opacity:1;stroke-width:6;stop-color:#000000"
     id="path901"
     sodipodi:type="arc"
     sodipodi:cx="-48.501"
     sodipodi:cy="-14.303"
     sodipodi:rx="16.826"
     sodipodi:ry="16.826"
     sodipodi:start="2.0944"
     sodipodi:end="4.1888"
     sodipodi:arc-type="slice"
     d="M -56.914,0.2687 A 16.826,16.826 0 0 1 -65.327,-14.303 A 16.826,16.826 0 0 1 -56.914,-28.875 L -48.501,-14.303 Z"
     transform="rotate(90)" />
  <path
     style="fill:url(#linearGradient909);fill-opacity:1;stroke-width:6;stop-color:#000000"
     id="path903"
     sodipodi:type="arc"
     sodipodi:cx="56.914"
     sodipodi:cy="-28.875"
     sodipodi:rx="16.826"
     sodipodi:ry="16.826"
     sodipodi:start="2.0944"
     sodipodi:end="4.1888"
     sodipodi:arc-type="slice"
     d="M 48.501,-14.303 A 16.826,16.826 0 0 1 40.088,-28.875 A 16.826,16.826 0 0 1 48.501,-43.447 L 56.914,-28.875 Z"
     transform="matrix(0,-1,-1,0,0,0)" />
  <path
     style="fill:url(#linearGradient907);fill-opacity:1;stroke-width:6;stop-color:#000000"
     id="path905"
     sodipodi:type="arc"
     sodipodi:cx="56.914"
     sodipodi:cy="0.26938"
     sodipodi:rx="16.826"
     sodipodi:ry="16.826"
     sodipodi:start="2.0944"
     sodipodi:end="4.1888"
     sodipodi:arc-type="slice"
     d="M 48.501,14.841 A 16.826,16.826 0 0 1 40.088,0.26926 A 16.826,16.826 0 0 1 48.501,-14.302 L 56.914,0.26938 Z"
     transform="matrix(0,-1,-1,0,0,0)" />
  <circle
     style="fill:url(#radialGradient959);fill-opacity:1;stroke-width:6;stop-color:#000000"
     id="path919"
     transform="rotate(105)"
     cx="-108"
     cy="14.22"
     r="16.826" />
  <path
     style="fill:url(#linearGradient925);fill-opacity:1;stroke-width:6.00003;stop-color:#000000"
     id="path923"
     sodipodi:type="arc"
     sodipodi:cx="96.31"
     sodipodi:cy="-5.8801"
     sodipodi:rx="16.826"
     sodipodi:ry="16.826"
     sodipodi:start="2.0944"
     sodipodi:end="4.1888"
     sodipodi:arc-type="slice"
     d="M 87.897,8.6917 A 16.826,16.826 0 0 1 79.484,-5.8802 A 16.826,16.826 0 0 1 87.897,-20.452 L 96.31,-5.8801 Z"
     transform="matrix(0.25882,-0.96593,-0.96593,-0.25882,0,0)" />
  <path
     style="fill:url(#linearGradient933);fill-opacity:1;stroke-width:6.00007;stop-color:#000000"
     id="path931"
     sodipodi:type="arc"
     sodipodi:cx="-53.247"
     sodipodi:cy="-80.466"
     sodipodi:rx="16.826"
     sodipodi:ry="16.826"
     sodipodi:start="2.0944"
     sodipodi:end="4.1888"
     sodipodi:arc-type="slice"
     d="M -61.66,-65.894 A 16.826,16.826 0 0 1 -70.073,-80.466 A 16.826,16.826 0 0 1 -61.66,-95.038 L -53.247,-80.466 Z"
     transform="matrix(-0.96593,0.25882,0.25882,0.96593,0,0)" />
  <path
     style="fill:url(#linearGradient941);fill-opacity:1;stroke-width:6.00003;stop-color:#000000"
     id="path935"
     sodipodi:type="arc"
     sodipodi:cx="-25.516"
     sodipodi:cy="87.897"
     sodipodi:rx="16.826"
     sodipodi:ry="16.826"
     sodipodi:start="2.0944"
     sodipodi:end="4.1888"
     sodipodi:arc-type="slice"
     d="M -33.929,102.47 A 16.826,16.826 0 0 1 -42.342,87.897 A 16.826,16.826 0 0 1 -33.929,73.325 L -25.516,87.897 Z"
     transform="matrix(0.96593,0.25882,0.25882,-0.96593,0,0)" />
  <path
     style="fill:url(#linearGradient939);fill-opacity:1;stroke-width:6.00013;stop-color:#000000"
     id="path937"
     sodipodi:type="arc"
     sodipodi:cx="88.876"
     sodipodi:cy="-21.848"
     sodipodi:rx="16.826"
     sodipodi:ry="16.826"
     sodipodi:start="2.0944"
     sodipodi:end="4.1888"
     sodipodi:arc-type="slice"
     d="M 80.463,-7.276 A 16.826,16.826 0 0 1 72.05,-21.848 A 16.826,16.826 0 0 1 80.463,-36.42 L 88.876,-21.848 Z"
     transform="matrix(-0.25882,-0.96593,-0.96593,0.25882,0,0)" />
  <path
     style="fill:url(#linearGradient957);fill-opacity:1;stroke-width:6.00009;stop-color:#000000"
     id="path943"
     sodipodi:type="arc"
     sodipodi:cx="-119.29"
     sodipodi:cy="-33.936"
     sodipodi:rx="16.826"
     sodipodi:ry="16.826"
     sodipodi:start="2.0944"
     sodipodi:end="4.1888"
     sodipodi:arc-type="slice"
     d="M -127.7,-19.364 A 16.826,16.826 0 0 1 -136.12,-33.936 A 16.826,16.826 0 0 1 -127.7,-48.508 L -119.29,-33.936 Z"
     transform="matrix(-0.25882,0.96593,0.96593,0.25882,0,0)" />
  <path
     style="fill:url(#linearGradient955);fill-opacity:1;stroke-width:6.00019;stop-color:#000000"
     id="path945"
     sodipodi:type="arc"
     sodipodi:cx="30.259"
     sodipodi:cy="120.29"
     sodipodi:rx="16.826"
     sodipodi:ry="16.826"
     sodipodi:start="2.0944"
     sodipodi:end="4.1888"
     sodipodi:arc-type="slice"
     d="M 21.846,134.86 A 16.826,16.826 0 0 1 13.433,120.29 A 16.826,16.826 0 0 1 21.846,105.72 L 30.259,120.29 Z"
     transform="matrix(0.96593,-0.25882,-0.25882,-0.96593,0,0)" />
  <path
     style="fill:url(#linearGradient953);fill-opacity:1;stroke-width:6.00009;stop-color:#000000"
     id="path947"
     sodipodi:type="arc"
     sodipodi:cx="2.5329"
     sodipodi:cy="-127.71"
     sodipodi:rx="16.826"
     sodipodi:ry="16.826"
     sodipodi:start="2.0944"
     sodipodi:end="4.1888"
     sodipodi:arc-type="slice"
     d="M -5.8803,-113.14 A 16.826,16.826 0 0 1 -14.293,-127.71 A 16.826,16.826 0 0 1 -5.8801,-142.28 L 2.5329,-127.71 Z"
     transform="matrix(-0.96593,-0.25882,-0.25882,0.96593,0,0)" />
  <path
     style="fill:url(#linearGradient951);fill-opacity:1;stroke-width:6.00025;stop-color:#000000"
     id="path949"
     sodipodi:type="arc"
     sodipodi:cx="-111.88"
     sodipodi:cy="61.659"
     sodipodi:rx="16.826"
     sodipodi:ry="16.826"
     sodipodi:start="2.0944"
     sodipodi:end="4.1888"
     sodipodi:arc-type="slice"
     d="M -120.29,76.231 A 16.826,16.826 0 0 1 -128.71,61.659 A 16.826,16.826 0 0 1 -120.29,47.087 L -111.88,61.659 Z"
     transform="matrix(0.25882,0.96593,0.96593,-0.25882,0,0)" />
  <text
     xml:space="preserve"
     style="font-size:4px;line-height:1.25;font-family:Roboto;-inkscape-font-specification:Roboto;text-decoration:none;text-decoration-line:none;text-decoration-color:#000000;fill:#ca1818;fill-opacity:1;stroke-width:6;stop-color:#000000"
     x="55.303"
     y="-54.333"
     id="text971"><tspan
       sodipodi:role="line"
       id="tspan969"
       x="55.303"
       y="-54.333">This is composed of three slices each 120 degrees that can be animated in so many ways to make a circle!</tspan></text>
  <g
     id="g1019">
    <path
       style="fill:url(#linearGradient1005);fill-opacity:1;stroke-width:6.00009;stop-color:#000000"
       id="path975"
       sodipodi:type="arc"
       sodipodi:cx="166.99"
       sodipodi:cy="26.117"
       sodipodi:rx="16.826"
       sodipodi:ry="16.826"
       sodipodi:start="2.0944"
       sodipodi:end="4.1888"
       sodipodi:arc-type="slice"
       d="M 158.58,40.689 A 16.826,16.826 0 0 1 150.16,26.117 A 16.826,16.826 0 0 1 158.58,11.545 L 166.99,26.117 Z"
       transform="matrix(0.25882,-0.96593,-0.96593,-0.25882,0,0)" />
    <path
       style="fill:url(#linearGradient1003);fill-opacity:1;stroke-width:6.00013;stop-color:#000000"
       id="path977"
       sodipodi:type="arc"
       sodipodi:cx="-60.878"
       sodipodi:cy="-157.68"
       sodipodi:rx="16.826"
       sodipodi:ry="16.826"
       sodipodi:start="2.0944"
       sodipodi:end="4.1888"
       sodipodi:arc-type="slice"
       d="M -69.291,-143.11 A 16.826,16.826 0 0 1 -77.704,-157.68 A 16.826,16.826 0 0 1 -69.291,-172.25 L -60.878,-157.68 Z"
       transform="matrix(-0.96593,0.25882,0.25882,0.96593,0,0)" />
    <path
       style="fill:url(#linearGradient997);fill-opacity:1;stroke-width:6.00018;stop-color:#000000"
       id="path983"
       sodipodi:type="arc"
       sodipodi:cx="-175.39"
       sodipodi:cy="-40.687"
       sodipodi:rx="16.826"
       sodipodi:ry="16.826"
       sodipodi:start="2.0944"
       sodipodi:end="4.1888"
       sodipodi:arc-type="slice"
       d="M -183.8,-26.115 A 16.826,16.826 0 0 1 -192.22,-40.687 A 16.826,16.826 0 0 1 -183.8,-55.259 L -175.39,-40.687 Z"
       transform="matrix(-0.25882,0.96593,0.96593,0.25882,0,0)" />
    <path
       style="fill:url(#linearGradient995);fill-opacity:1;stroke-width:6.00028;stop-color:#000000"
       id="path985"
       sodipodi:type="arc"
       sodipodi:cx="52.463"
       sodipodi:cy="172.25"
       sodipodi:rx="16.826"
       sodipodi:ry="16.826"
       sodipodi:start="2.0944"
       sodipodi:end="4.1888"
       sodipodi:arc-type="slice"
       d="M 44.05,186.82 A 16.826,16.826 0 0 1 35.637,172.25 A 16.826,16.826 0 0 1 44.05,157.68 L 52.463,172.25 Z"
       transform="matrix(0.96593,-0.25882,-0.25882,-0.96593,0,0)" />
  </g>
  <g
     id="g1013"
     transform="translate(-0.66662,0.01544)">
    <path
       style="fill:url(#linearGradient1001);fill-opacity:1;stroke-width:6.00012;stop-color:#000000"
       id="path979"
       sodipodi:type="arc"
       sodipodi:cx="-36.97"
       sodipodi:cy="164.09"
       sodipodi:rx="16.826"
       sodipodi:ry="16.826"
       sodipodi:start="2.0944"
       sodipodi:end="4.1888"
       sodipodi:arc-type="slice"
       d="M -45.383,178.66 A 16.826,16.826 0 0 1 -53.796,164.09 A 16.826,16.826 0 0 1 -45.383,149.52 L -36.97,164.09 Z"
       transform="matrix(0.96593,0.25882,0.25882,-0.96593,0,0)" />
    <path
       style="fill:url(#linearGradient999);fill-opacity:1;stroke-width:6.00022;stop-color:#000000"
       id="path981"
       sodipodi:type="arc"
       sodipodi:cx="160.59"
       sodipodi:cy="-50.022"
       sodipodi:rx="16.826"
       sodipodi:ry="16.826"
       sodipodi:start="2.0944"
       sodipodi:end="4.1888"
       sodipodi:arc-type="slice"
       d="M 152.18,-35.45 A 16.826,16.826 0 0 1 143.76,-50.022 A 16.826,16.826 0 0 1 152.18,-64.594 L 160.59,-50.022 Z"
       transform="matrix(-0.25882,-0.96593,-0.96593,0.25882,0,0)" />
    <path
       style="fill:url(#linearGradient993);fill-opacity:1;stroke-width:6.00021;stop-color:#000000"
       id="path987"
       sodipodi:type="arc"
       sodipodi:cx="28.55"
       sodipodi:cy="-178.65"
       sodipodi:rx="16.826"
       sodipodi:ry="16.826"
       sodipodi:start="2.0944"
       sodipodi:end="4.1888"
       sodipodi:arc-type="slice"
       d="M 20.137,-164.08 A 16.826,16.826 0 0 1 11.724,-178.65 A 16.826,16.826 0 0 1 20.137,-193.22 L 28.55,-178.65 Z"
       transform="matrix(-0.96593,-0.25882,-0.25882,0.96593,0,0)" />
    <path
       style="fill:url(#linearGradient991);fill-opacity:1;stroke-width:6.00037;stop-color:#000000"
       id="path989"
       sodipodi:type="arc"
       sodipodi:cx="-169.01"
       sodipodi:cy="64.597"
       sodipodi:rx="16.826"
       sodipodi:ry="16.826"
       sodipodi:start="2.0944"
       sodipodi:end="4.1888"
       sodipodi:arc-type="slice"
       d="M -177.42,79.169 A 16.826,16.826 0 0 1 -185.84,64.597 A 16.826,16.826 0 0 1 -177.42,50.025 L -169.01,64.597 Z"
       transform="matrix(0.25882,0.96593,0.96593,-0.25882,0,0)" />
  </g>
</svg>
