<svg version="1.1" viewBox="0 0 19.659 19.661" xmlns="http://www.w3.org/2000/svg">
  <defs>
    <radialGradient id="gradient" cx="12" cy="12" r="9.8298" gradientTransform="matrix(1,0,0,1.0001,-2.1703,-2.1708)" gradientUnits="userSpaceOnUse">
      <stop stop-color="#dd8622" offset="0">
        <animate attributeName="stop-color" values="#dd8622;#b9b8b1" dur="2s" begin="anim1.end+0s" fill="freeze" />
      </stop>
      <stop stop-color="#dd6f24" offset="1">
        <animate attributeName="stop-color" values="#dd6f24;#b9b8b1" dur="2s" begin="anim1.end+0s" fill="freeze" />
      </stop>
    </radialGradient>
    <clipPath id="clip-reveal">
      <circle r="0" cx="9.829" cy="9.831">
        <!-- https://easings.net/ -->
        <animate id="anim1"
                 fill="freeze" attributeName="r" begin="1800ms" dur="2500ms" from="0"
                 calcMode="spline"
                 keyTimes="0; 1"
                 keySplines="0.5, 1, 0.68, 1"
                 to="10"/>
      </circle>
    </clipPath>
    <path id="mark" pathLength="1000" d="m6.3667 11.831c1.2377-0.715 2.7626-0.715 4.0003 0 1.238 0.715 2 2.035 2 3.464s-0.762 2.749-2.001 3.465c-0.9293 0.536-2.073 0.536-3.0013 0-0.9282-0.536-1.5-1.526-1.5-2.598-3e-4 -1.072 0.5715-2.063 1.5005-2.599 0.6193-0.357 1.3817-0.357 2.0005 0 0.6192 0.357 1.0003 1.018 1.0003 1.733s-0.3814 1.375-1.0008 1.732c-0.3099 0.179-0.6911 0.179-1.0005 0s-0.5-0.509-0.5-0.866 0.1906-0.687 0.5-0.866m3.4653-2.001c-0.715-1.238-0.715-2.762 0-4 0.715-1.2376 2.035-2 3.464-2s2.749 0.7624 3.464 2c0.536 0.928 0.536 2.072 0 3s-1.526 1.5-2.598 1.5-2.062-0.572-2.598-1.5c-0.357-0.619-0.357-1.381 0-2 0.357-0.6188 1.017-1 1.732-1s1.375 0.3812 1.732 1c0.179 0.309 0.179 0.691 0 1s-0.509 0.5-0.866 0.5-0.687-0.191-0.866-0.5m-7.4633-4.929c0.7145 1.2376 0.7145 2.7624 0 4-0.7145 1.238-2.035 2-3.464 2s-2.7495-0.762-3.4645-2c-0.5364-0.9282-0.5364-2.0718-5e-4 -3s1.5262-1.5 2.598-1.5 2.0621 0.5718 2.5985 1.5c0.3578 0.6188 0.3578 1.3812 5e-4 2s-1.0175 1-1.732 1-1.3747-0.3812-1.7325-1c-0.1791-0.3094-0.1791-0.6906-5e-4 -1s0.5087-0.5 0.866-0.5 0.6874 0.1906 0.866 0.5m8.9293-0.536c-1.238 0.7148-2.763 0.7148-4.0006 0-1.2376-0.7145-2-2.035-2-3.464s0.7624-2.7495 1.9995-3.464c0.9281-0.53613 2.0721-0.53613 3.0001 0 0.928 0.5359 1.5 1.5262 1.5 2.598s-0.572 2.0621-1.5 2.598c-0.618 0.3573-1.38 0.3573-1.999 0-0.619-0.3571-1.0005-1.0174-1.0006-1.732 1e-4 -0.7146 0.3816-1.3749 0.9996-1.732 0.309-0.1786 0.691-0.1786 1 0s0.5 0.5087 0.5 0.866-0.191 0.6874-0.5 0.866" fill="none" stroke-linecap="round" />
  </defs>

<g>
<animateTransform id="anim2" attributeName="transform"
                      type="rotate" from="30 9.829 9.831" to="0 9.829 9.831"
                      dur="3500ms"
                      begin="0s"
                      calcMode="spline"
                      keyTimes="0; 1"
                      keySplines="0.4, 0.2, 0.25, 1.0"
                      fill="freeze"/>
<use href="#mark" x="0" stroke-dasharray="1000" stroke-dashoffset="955" stroke="#b9b8b1">
  <animate id="anim3" attributeName="stroke-dashoffset" begin="0s; anim3.end" to="0" dur="16s"
           calcMode="spline"
           keyTimes="0; 1"
           keySplines="0.6, 1, 1, .4" />
</use>
<use href="#mark" x="0" stroke="url(#gradient)" clip-path="url(#clip-reveal)" />
</g>

</svg>
