<?xml version="1.0" standalone="no"?><!DOCTYPE svg PUBLIC "-//W3C//DTD SVG 1.1//EN" "http://www.w3.org/Graphics/SVG/1.1/DTD/svg11.dtd"><svg xmlns:xlink="http://www.w3.org/1999/xlink" version="1.1" class="highcharts-root" style="font-family:&quot;Lucida Grande&quot;, &quot;Lucida Sans Unicode&quot;, Arial, Helvetica, sans-serif;font-size:12px;" xmlns="http://www.w3.org/2000/svg" width="600" height="400" viewBox="0 0 600 400" aria-label="Interactive chart" aria-hidden="false"><desc aria-hidden="true">Created with Highcharts 9.1.0</desc><defs aria-hidden="true"><clipPath id="highcharts-jyzw3mt-24-"><rect x="0" y="0" width="580" height="332" fill="none"></rect></clipPath></defs><rect fill="#ffffff" class="highcharts-background" x="0" y="0" width="600" height="400" rx="0" ry="0" aria-hidden="true"></rect><rect fill="none" class="highcharts-plot-background" x="10" y="53" width="580" height="332" aria-hidden="true"></rect><rect fill="none" class="highcharts-plot-border" data-z-index="1" x="10" y="53" width="580" height="332" aria-hidden="true"></rect><g class="highcharts-series-group" data-z-index="3" aria-hidden="false"><g class="highcharts-series highcharts-series-0 highcharts-pie-series" data-z-index="0.1" opacity="1" transform="translate(10,53) scale(1 1)" aria-hidden="false" aria-label=""><path fill="#7cb5ec" d="M 307.4717912612882 42.50000287268213 A 138.5 138.5 0 1 1 216.57117295486236 285.4710410218805 L 307.5 181 A 0 0 0 1 0 307.5 181 Z" transform="translate(9,4)" stroke="#ffffff" stroke-width="1" opacity="1" stroke-linejoin="round" class="highcharts-point highcharts-point-select highcharts-color-0" tabindex="-1" role="img" aria-label="1. Chrome, 61.41%." style="outline: 0px;"></path><path fill="#434348" d="M 216.46674739566208 285.3800599744741 A 138.5 138.5 0 0 1 169.8461154885267 196.2858784144704 L 307.5 181 A 0 0 0 0 0 307.5 181 Z" transform="translate(0,0)" stroke="#ffffff" stroke-width="1" opacity="1" stroke-linejoin="round" class="highcharts-point highcharts-color-1" tabindex="-1" role="img" aria-label="2. Internet Explorer, 11.84%." style="outline: 0px;"></path><path fill="#90ed7d" d="M 169.83089843959638 196.14821690996268 A 138.5 138.5 0 0 1 190.92716929237622 106.2134695228366 L 307.5 181 A 0 0 0 0 0 307.5 181 Z" transform="translate(0,0)" stroke="#ffffff" stroke-width="1" opacity="1" stroke-linejoin="round" class="highcharts-point highcharts-color-2" tabindex="-1" role="img" aria-label="3. Firefox, 10.85%." style="outline: 0px;"></path><path fill="#f7a35c" d="M 191.00201409679948 106.09693410481992 A 138.5 138.5 0 0 1 217.60088713923832 75.64156651293625 L 307.5 181 A 0 0 0 0 0 307.5 181 Z" transform="translate(0,0)" stroke="#ffffff" stroke-width="1" opacity="1" stroke-linejoin="round" class="highcharts-point highcharts-color-3" tabindex="-1" role="img" aria-label="4. Edge, 4.67%." style="outline: 0px;"></path><path fill="#8085e9" d="M 217.70629050471837 75.55172009427099 A 138.5 138.5 0 0 1 247.95797922847277 55.9520181592561 L 307.5 181 A 0 0 0 0 0 307.5 181 Z" transform="translate(0,0)" stroke="#ffffff" stroke-width="1" opacity="1" stroke-linejoin="round" class="highcharts-point highcharts-color-4" tabindex="-1" role="img" aria-label="5. Safari, 4.18%." style="outline: 0px;"></path><path fill="#f15c80" d="M 248.08305696048012 55.892538672393925 A 138.5 138.5 0 0 1 261.1307210695379 50.492758930896855 L 307.5 181 A 0 0 0 0 0 307.5 181 Z" transform="translate(0,0)" stroke="#ffffff" stroke-width="1" opacity="1" stroke-linejoin="round" class="highcharts-point highcharts-color-5" tabindex="-1" role="img" aria-label="6. Sogou Explorer, 1.64%." style="outline: 0px;"></path><path fill="#e4d354" d="M 261.2612514734934 50.44645491330968 A 138.5 138.5 0 0 1 274.5258590802427 46.482506600055956 L 307.5 181 A 0 0 0 0 0 307.5 181 Z" transform="translate(0,0)" stroke="#ffffff" stroke-width="1" opacity="1" stroke-linejoin="round" class="highcharts-point highcharts-color-6" tabindex="-1" role="img" aria-label="7. Opera, 1.6%." style="outline: 0px;"></path><path fill="#2b908f" d="M 274.6603930382922 46.449599723372984 A 138.5 138.5 0 0 1 284.69791179148274 44.38991701440557 L 307.5 181 A 0 0 0 0 0 307.5 181 Z" transform="translate(0,0)" stroke="#ffffff" stroke-width="1" opacity="1" stroke-linejoin="round" class="highcharts-point highcharts-color-7" tabindex="-1" role="img" aria-label="8. QQ, 1.2%." style="outline: 0px;"></path><path fill="#f45b5b" d="M 284.8345332527432 44.367183235033195 A 138.5 138.5 0 0 1 307.30762627857706 42.50013360168427 L 307.5 181 A 0 0 0 0 0 307.5 181 Z" transform="translate(0,0)" stroke="#ffffff" stroke-width="1" opacity="1" stroke-linejoin="round" class="highcharts-point highcharts-color-8" tabindex="-1" role="img" aria-label="9. Other, 2.61%." style="outline: 0px;"></path></g><g class="highcharts-markers highcharts-series-0 highcharts-pie-series" data-z-index="0.1" opacity="1" transform="translate(10,53) scale(1 1)" aria-hidden="true"></g></g><text x="300" text-anchor="middle" class="highcharts-title" data-z-index="4" style="color:#333333;font-size:18px;fill:#333333;" y="24" aria-hidden="true">Browser market shares in January, 2018</text><text x="300" text-anchor="middle" class="highcharts-subtitle" data-z-index="4" style="color:#666666;fill:#666666;" y="52" aria-hidden="true"></text><text x="10" text-anchor="start" class="highcharts-caption" data-z-index="4" style="color:#666666;fill:#666666;" y="397" aria-hidden="true"></text><g class="highcharts-data-labels highcharts-series-0 highcharts-pie-series" data-z-index="6" opacity="1" transform="translate(10,53) scale(1 1)" aria-hidden="true"><path fill="none" class="highcharts-data-label-connector highcharts-color-0" stroke="#7cb5ec" stroke-width="1" d="M 470.29009230247 240.11460708807934 C 465.29009230247 240.11460708807934 448.4341773977551 233.79969357125185 442.81553909618344 231.69472239897604 L 437.1969007946118 229.58975122670023"></path><path fill="none" class="highcharts-data-label-connector highcharts-color-1" stroke="#434348" stroke-width="1" d="M 153.19105014984663 259.09665482365034 C 158.19105014984663 259.09665482365034 174.1409676412577 250.7539854656343 179.45760680506137 247.97309567962893 L 184.77424596886505 245.19220589362357"></path><path fill="none" class="highcharts-data-label-connector highcharts-color-2" stroke="#90ed7d" stroke-width="1" d="M 135.79067212660235 156.5 C 140.79067212660235 156.5 160.99438961942607 146.55647917219449 166.8351448505453 147.92964279323655 L 172.67590008166454 149.30280641427862"></path><path fill="none" class="highcharts-data-label-connector highcharts-color-3" stroke="#f7a35c" stroke-width="1" d="M 141.13085796844553 132.5 C 146.13085796844553 132.5 194.2027495861941 81.93445074764207 198.71958348973453 85.88390786069289 L 203.23641739327496 89.8333649737437"></path><path fill="none" class="highcharts-data-label-connector highcharts-color-4" stroke="#8085e9" stroke-width="1" d="M 150.39477326534765 108.5 C 155.39477326534765 108.5 225.7434236947227 54.642917765408285 229.00282208563078 59.68040941595679 L 232.26222047653886 64.71790106650529"></path><path fill="none" class="highcharts-data-label-connector highcharts-color-5" stroke="#f15c80" stroke-width="1" d="M 164.36962680134394 84.5 C 169.36962680134394 84.5 250.08091653710693 41.88386558604597 252.37004943263756 47.43002376866208 L 254.65918232816819 52.97618195127819"></path><path fill="none" class="highcharts-data-label-connector highcharts-color-6" stroke="#e4d354" stroke-width="1" d="M 184.72054508531636 60.5 C 189.72054508531636 60.5 264.51396979262313 36.76945120048083 266.22769857165474 42.51950630212279 L 267.94142735068635 48.269561403764754"></path><path fill="none" class="highcharts-data-label-connector highcharts-color-7" stroke="#2b908f" stroke-width="1" d="M 215.82820527991817 36.5 C 220.82820527991817 36.5 277.3509968779963 33.550728686950066 278.55295049083367 39.429104951922156 L 279.75490410367104 45.307481216894246"></path><path fill="none" class="highcharts-data-label-connector highcharts-color-8" stroke="#f45b5b" stroke-width="1" d="M 288.6992232857453 12.5 C 293.6992232857453 12.5 295.17349023444916 31.005642916142406 295.66491255068377 36.98548439456862 L 296.15633486691837 42.96532587299484"></path><g class="highcharts-label highcharts-data-label highcharts-data-label-color-0" data-z-index="1" style="cursor:pointer;" transform="translate(475,230)"><text x="5" data-z-index="1" y="16" style="color:#000000;font-size:11px;font-weight:bold;fill:#000000;"><tspan class="highcharts-text-outline" fill="#FFFFFF" stroke="#FFFFFF" stroke-width="2px" stroke-linejoin="round" style=""><tspan style="font-weight:bold;">Chrome</tspan>: 61.4 %<tspan x="5" y="16">​</tspan></tspan><tspan style="font-weight:bold;">Chrome</tspan>: 61.4 %</text></g><g class="highcharts-label highcharts-data-label highcharts-data-label-color-1" data-z-index="1" style="cursor:pointer;" transform="translate(0,249)"><text x="5" data-z-index="1" y="16" style="color:#000000;font-size:11px;font-weight:bold;fill:#000000;"><tspan class="highcharts-text-outline" fill="#FFFFFF" stroke="#FFFFFF" stroke-width="2px" stroke-linejoin="round" style=""><tspan style="font-weight:bold;">Internet Explorer</tspan>: 11.8 %<tspan x="5" y="16">​</tspan></tspan><tspan style="font-weight:bold;">Internet Explorer</tspan>: 11.8 %</text></g><g class="highcharts-label highcharts-data-label highcharts-data-label-color-2" data-z-index="1" style="cursor:pointer;" transform="translate(37,147)"><text x="5" data-z-index="1" y="16" style="color:#000000;font-size:11px;font-weight:bold;fill:#000000;"><tspan class="highcharts-text-outline" fill="#FFFFFF" stroke="#FFFFFF" stroke-width="2px" stroke-linejoin="round" style=""><tspan style="font-weight:bold;">Firefox</tspan>: 10.9 %<tspan x="5" y="16">​</tspan></tspan><tspan style="font-weight:bold;">Firefox</tspan>: 10.9 %</text></g><g class="highcharts-label highcharts-data-label highcharts-data-label-color-3" data-z-index="1" style="cursor:pointer;" transform="translate(62,123)"><text x="5" data-z-index="1" y="16" style="color:#000000;font-size:11px;font-weight:bold;fill:#000000;"><tspan class="highcharts-text-outline" fill="#FFFFFF" stroke="#FFFFFF" stroke-width="2px" stroke-linejoin="round" style=""><tspan style="font-weight:bold;">Edge</tspan>: 4.7 %<tspan x="5" y="16">​</tspan></tspan><tspan style="font-weight:bold;">Edge</tspan>: 4.7 %</text></g><g class="highcharts-label highcharts-data-label highcharts-data-label-color-4" data-z-index="1" style="cursor:pointer;" transform="translate(67,99)"><text x="5" data-z-index="1" y="16" style="color:#000000;font-size:11px;font-weight:bold;fill:#000000;"><tspan class="highcharts-text-outline" fill="#FFFFFF" stroke="#FFFFFF" stroke-width="2px" stroke-linejoin="round" style=""><tspan style="font-weight:bold;">Safari</tspan>: 4.2 %<tspan x="5" y="16">​</tspan></tspan><tspan style="font-weight:bold;">Safari</tspan>: 4.2 %</text></g><g class="highcharts-label highcharts-data-label highcharts-data-label-color-5" data-z-index="1" style="cursor:pointer;" transform="translate(27,75)"><text x="5" data-z-index="1" y="16" style="color:#000000;font-size:11px;font-weight:bold;fill:#000000;"><tspan class="highcharts-text-outline" fill="#FFFFFF" stroke="#FFFFFF" stroke-width="2px" stroke-linejoin="round" style=""><tspan style="font-weight:bold;">Sogou Explorer</tspan>: 1.6 %<tspan x="5" y="16">​</tspan></tspan><tspan style="font-weight:bold;">Sogou Explorer</tspan>: 1.6 %</text></g><g class="highcharts-label highcharts-data-label highcharts-data-label-color-6" data-z-index="1" style="cursor:pointer;" transform="translate(99,51)"><text x="5" data-z-index="1" y="16" style="color:#000000;font-size:11px;font-weight:bold;fill:#000000;"><tspan class="highcharts-text-outline" fill="#FFFFFF" stroke="#FFFFFF" stroke-width="2px" stroke-linejoin="round" style=""><tspan style="font-weight:bold;">Opera</tspan>: 1.6 %<tspan x="5" y="16">​</tspan></tspan><tspan style="font-weight:bold;">Opera</tspan>: 1.6 %</text></g><g class="highcharts-label highcharts-data-label highcharts-data-label-color-7" data-z-index="1" style="cursor:pointer;" transform="translate(146,27)"><text x="5" data-z-index="1" y="16" style="color:#000000;font-size:11px;font-weight:bold;fill:#000000;"><tspan class="highcharts-text-outline" fill="#FFFFFF" stroke="#FFFFFF" stroke-width="2px" stroke-linejoin="round" style=""><tspan style="font-weight:bold;">QQ</tspan>: 1.2 %<tspan x="5" y="16">​</tspan></tspan><tspan style="font-weight:bold;">QQ</tspan>: 1.2 %</text></g><g class="highcharts-label highcharts-data-label highcharts-data-label-color-8" data-z-index="1" style="cursor:pointer;" transform="translate(205,3)"><text x="5" data-z-index="1" y="16" style="color:#000000;font-size:11px;font-weight:bold;fill:#000000;"><tspan class="highcharts-text-outline" fill="#FFFFFF" stroke="#FFFFFF" stroke-width="2px" stroke-linejoin="round" style=""><tspan style="font-weight:bold;">Other</tspan>: 2.6 %<tspan x="5" y="16">​</tspan></tspan><tspan style="font-weight:bold;">Other</tspan>: 2.6 %</text></g></g><g class="highcharts-legend" data-z-index="7" aria-hidden="true"><rect fill="none" class="highcharts-legend-box" rx="0" ry="0" x="0" y="0" width="8" height="8" visibility="hidden"></rect><g data-z-index="1"><g></g></g></g><text x="590" class="highcharts-credits" text-anchor="end" data-z-index="8" style="cursor:pointer;color:#999999;font-size:9px;fill:#999999;" y="395" aria-label="Chart credits: Highcharts.com" aria-hidden="false">Highcharts.com</text></svg>