<?xml version="1.0" standalone="no"?><!DOCTYPE svg PUBLIC "-//W3C//DTD SVG 1.1//EN" "http://www.w3.org/Graphics/SVG/1.1/DTD/svg11.dtd"><svg xmlns:xlink="http://www.w3.org/1999/xlink" version="1.1" class="highcharts-root" style="font-family:&quot;Lucida Grande&quot;, &quot;Lucida Sans Unicode&quot;, Arial, Helvetica, sans-serif;font-size:12px;" xmlns="http://www.w3.org/2000/svg" width="600" height="400" viewBox="0 0 600 400" aria-label="Interactive chart" aria-hidden="false"><desc aria-hidden="true">Created with Highcharts 9.1.0</desc><defs aria-hidden="true"><clipPath id="highcharts-2two5at-20-"><rect x="0" y="0" width="580" height="332" fill="none"></rect></clipPath></defs><rect fill="#ffffff" class="highcharts-background" x="0" y="0" width="600" height="400" rx="0" ry="0" aria-hidden="true"></rect><rect fill="none" class="highcharts-plot-background" x="10" y="53" width="580" height="332" aria-hidden="true"></rect><rect fill="none" class="highcharts-plot-border" data-z-index="1" x="10" y="53" width="580" height="332" aria-hidden="true"></rect><g class="highcharts-series-group" data-z-index="3" aria-hidden="false"><g class="highcharts-series highcharts-series-0 highcharts-variablepie-series" data-z-index="0.1" opacity="1" transform="translate(10,53) scale(1 1)" aria-hidden="false" aria-label=""><path fill="#7cb5ec" d="M 289.9774941109917 59.50000229192328 A 110.5 110.5 0 0 1 400.0121703639745 159.62828983205537 L 320.26579166574504 167.14660643343424 A 30.4 30.4 0 0 0 289.99380833460765 139.60000063053818 Z" transform="translate(0,0)" stroke="#ffffff" stroke-width="1" opacity="1" stroke-linejoin="round" class="highcharts-point highcharts-color-0" tabindex="-1" role="img" aria-label="1. Spain, y: 505,370, z: 92.9." style="outline: 0px;"></path><path fill="#434348" d="M 409.48143391818996 158.85608018454874 A 120 120 0 0 1 296.0929381920295 289.84521727707 L 291.5435443419808 200.36078837685773 A 30.4 30.4 0 0 0 320.26862992594147 167.17687364675234 Z" transform="translate(0,0)" stroke="#ffffff" stroke-width="1" opacity="1" stroke-linejoin="round" class="highcharts-point highcharts-color-1" tabindex="-1" role="img" aria-label="2. France, y: 551,500, z: 118.7." style="outline: 0px;"></path><path fill="#90ed7d" d="M 296.0726414473954 291.8487711298369 A 122 122 0 0 1 197.28867826369864 249.3007617990396 L 266.89816245259374 189.76018982533446 A 30.4 30.4 0 0 0 291.513182786892 200.36231674054952 Z" transform="translate(0,0)" stroke="#ffffff" stroke-width="1" opacity="1" stroke-linejoin="round" class="highcharts-point highcharts-color-2" tabindex="-1" role="img" aria-label="3. Poland, y: 312,685, z: 124.6." style="outline: 0px;"></path><path fill="#f7a35c" d="M 194.16710989932335 251.80499480442276 A 126 126 0 0 1 178.04103524440666 227.8030294262836 L 262.98767834468225 183.9461277345954 A 30.4 30.4 0 0 0 266.8784138169796 189.73707811154327 Z" transform="translate(0,0)" stroke="#ffffff" stroke-width="1" opacity="1" stroke-linejoin="round" class="highcharts-point highcharts-color-3" tabindex="-1" role="img" aria-label="4. Czech Republic, y: 78,867, z: 137.5." style="outline: 0px;"></path><path fill="#8085e9" d="M 161.98090080467648 235.93261894705776 A 144 144 0 0 1 157.61565165829987 113.33974661066722 L 262.0521931278633 158.03839095114085 A 30.4 30.4 0 0 0 262.9737457254317 183.91910844437885 Z" transform="translate(0,0)" stroke="#ffffff" stroke-width="1" opacity="1" stroke-linejoin="round" class="highcharts-point highcharts-color-4" tabindex="-1" role="img" aria-label="5. Italy, y: 301,340, z: 201.8." style="outline: 0px;"></path><path fill="#f15c80" d="M 154.91555263804813 112.02421125231629 A 147 147 0 0 1 162.82740372980845 96.26987889675709 L 263.70036104344337 154.7524103296695 A 30.4 30.4 0 0 0 262.06416870882083 158.01044912973072 Z" transform="translate(0,0)" stroke="#ffffff" stroke-width="1" opacity="1" stroke-linejoin="round" class="highcharts-point highcharts-color-5" tabindex="-1" role="img" aria-label="6. Switzerland, y: 41,277, z: 214.5." style="outline: 0px;"></path><path fill="#e4d354" d="M 158.57810890195415 93.63059159445206 A 152 152 0 0 1 289.7888750494131 18.00014662423112 L 289.9577750098826 139.60002932484622 A 30.4 30.4 0 0 0 263.71562178039085 154.7261183188904 Z" transform="translate(0,0)" stroke="#ffffff" stroke-width="1" opacity="1" stroke-linejoin="round" class="highcharts-point highcharts-color-6" tabindex="-1" role="img" aria-label="7. Germany, y: 357,022, z: 235.6." style="outline: 0px;"></path></g><g class="highcharts-markers highcharts-series-0 highcharts-variablepie-series" data-z-index="0.1" opacity="1" transform="translate(10,53) scale(1 1)" aria-hidden="true"></g></g><text x="300" text-anchor="middle" class="highcharts-title" data-z-index="4" style="color:#333333;font-size:18px;fill:#333333;" y="24" aria-hidden="true">Countries compared by population density and total area.</text><text x="300" text-anchor="middle" class="highcharts-subtitle" data-z-index="4" style="color:#666666;fill:#666666;" y="52" aria-hidden="true"></text><text x="10" text-anchor="start" class="highcharts-caption" data-z-index="4" style="color:#666666;fill:#666666;" y="397" aria-hidden="true"></text><g class="highcharts-data-labels highcharts-series-0 highcharts-variablepie-series" data-z-index="6" opacity="1" transform="translate(10,53) scale(1 1)" aria-hidden="true"><path fill="none" class="highcharts-data-label-connector highcharts-color-0" stroke="#7cb5ec" stroke-width="1" d="M 389.6457158649338 66.161478879877 C 384.6457158649338 66.161478879877 372.5202860744085 79.46463461056892 368.47847614423335 83.89901985413289 L 364.4366662140582 88.33340509769685"></path><path fill="none" class="highcharts-data-label-connector highcharts-color-1" stroke="#434348" stroke-width="1" d="M 408.3604509752041 268.23140106248275 C 403.3604509752041 268.23140106248275 389.7571968581797 256.4436329349848 385.22277881917154 252.5143768924855 L 380.68836078016335 248.5851208499862"></path><path fill="none" class="highcharts-data-label-connector highcharts-color-2" stroke="#90ed7d" stroke-width="1" d="M 224.8139107019678 309.576626463779 C 229.8139107019678 309.576626463779 236.94121075041915 293.04781543517356 239.3169774332362 287.5382117589718 L 241.69274411605323 282.02860808277"></path><path fill="none" class="highcharts-data-label-connector highcharts-color-3" stroke="#f7a35c" stroke-width="1" d="M 155.4625024595749 256.9254665271597 C 160.4625024595749 256.9254665271597 175.40913679116244 246.89560500479507 180.39134823502494 243.55231783067356 L 185.37355967888743 240.20903065655205"></path><path fill="none" class="highcharts-data-label-connector highcharts-color-4" stroke="#8085e9" stroke-width="1" d="M 111.10635302810061 176.08272494959502 C 116.10635302810061 176.08272494959502 134.0953509907109 175.4534775410162 140.09168364491433 175.2437284048233 L 146.08801629911775 175.03397926863036"></path><path fill="none" class="highcharts-data-label-connector highcharts-color-5" stroke="#f15c80" stroke-width="1" d="M 126.88262300104654 90.45193219838194 C 131.88262300104654 90.45193219838194 147.96235625517738 98.54156621210582 153.32226733988767 101.2381108833471 L 158.68217842459796 103.93465555458839"></path><path fill="none" class="highcharts-data-label-connector highcharts-color-6" stroke="#e4d354" stroke-width="1" d="M 194.22788538860283 12.252026292014207 C 199.22788538860283 12.252026292014207 208.2053472732465 27.853474241155652 211.19783456812772 33.05395689086947 L 214.19032186300893 38.25443954058329"></path><g class="highcharts-label highcharts-data-label highcharts-data-label-color-0" data-z-index="1" transform="translate(395,56)"><text x="5" data-z-index="1" y="16" style="color:#000000;font-size:11px;font-weight:bold;fill:#000000;"><tspan class="highcharts-text-outline" fill="#FFFFFF" stroke="#FFFFFF" stroke-width="2px" stroke-linejoin="round" style="">Spain<tspan x="5" y="16">​</tspan></tspan>Spain</text></g><g class="highcharts-label highcharts-data-label highcharts-data-label-color-1" data-z-index="1" transform="translate(413,258)"><text x="5" data-z-index="1" y="16" style="color:#000000;font-size:11px;font-weight:bold;fill:#000000;"><tspan class="highcharts-text-outline" fill="#FFFFFF" stroke="#FFFFFF" stroke-width="2px" stroke-linejoin="round" style="">France<tspan x="5" y="16">​</tspan></tspan>France</text></g><g class="highcharts-label highcharts-data-label highcharts-data-label-color-2" data-z-index="1" transform="translate(172,300)"><text x="5" data-z-index="1" y="16" style="color:#000000;font-size:11px;font-weight:bold;fill:#000000;"><tspan class="highcharts-text-outline" fill="#FFFFFF" stroke="#FFFFFF" stroke-width="2px" stroke-linejoin="round" style="">Poland<tspan x="5" y="16">​</tspan></tspan>Poland</text></g><g class="highcharts-label highcharts-data-label highcharts-data-label-color-3" data-z-index="1" transform="translate(55,247)"><text x="5" data-z-index="1" y="16" style="color:#000000;font-size:11px;font-weight:bold;fill:#000000;"><tspan class="highcharts-text-outline" fill="#FFFFFF" stroke="#FFFFFF" stroke-width="2px" stroke-linejoin="round" style="">Czech Republic<tspan x="5" y="16">​</tspan></tspan>Czech Republic</text></g><g class="highcharts-label highcharts-data-label highcharts-data-label-color-4" data-z-index="1" transform="translate(71,166)"><text x="5" data-z-index="1" y="16" style="color:#000000;font-size:11px;font-weight:bold;fill:#000000;"><tspan class="highcharts-text-outline" fill="#FFFFFF" stroke="#FFFFFF" stroke-width="2px" stroke-linejoin="round" style="">Italy<tspan x="5" y="16">​</tspan></tspan>Italy</text></g><g class="highcharts-label highcharts-data-label highcharts-data-label-color-5" data-z-index="1" transform="translate(47,80)"><text x="5" data-z-index="1" y="16" style="color:#000000;font-size:11px;font-weight:bold;fill:#000000;"><tspan class="highcharts-text-outline" fill="#FFFFFF" stroke="#FFFFFF" stroke-width="2px" stroke-linejoin="round" style="">Switzerland<tspan x="5" y="16">​</tspan></tspan>Switzerland</text></g><g class="highcharts-label highcharts-data-label highcharts-data-label-color-6" data-z-index="1" transform="translate(128,2)"><text x="5" data-z-index="1" y="16" style="color:#000000;font-size:11px;font-weight:bold;fill:#000000;"><tspan class="highcharts-text-outline" fill="#FFFFFF" stroke="#FFFFFF" stroke-width="2px" stroke-linejoin="round" style="">Germany<tspan x="5" y="16">​</tspan></tspan>Germany</text></g></g><g class="highcharts-legend" data-z-index="7" aria-hidden="true"><rect fill="none" class="highcharts-legend-box" rx="0" ry="0" x="0" y="0" width="8" height="8" visibility="hidden"></rect><g data-z-index="1"><g></g></g></g><text x="590" class="highcharts-credits" text-anchor="end" data-z-index="8" style="cursor:pointer;color:#999999;font-size:9px;fill:#999999;" y="395" aria-label="Chart credits: Highcharts.com" aria-hidden="false">Highcharts.com</text></svg>