<?xml version="1.0" standalone="no"?><!DOCTYPE svg PUBLIC "-//W3C//DTD SVG 1.1//EN" "http://www.w3.org/Graphics/SVG/1.1/DTD/svg11.dtd"><svg xmlns:xlink="http://www.w3.org/1999/xlink" version="1.1" class="highcharts-root" style="font-family:&quot;Lucida Grande&quot;, &quot;Lucida Sans Unicode&quot;, Arial, Helvetica, sans-serif;font-size:12px;" xmlns="http://www.w3.org/2000/svg" width="600" height="400" viewBox="0 0 600 400" aria-label="Interactive chart" aria-hidden="false"><desc aria-hidden="true">Created with Highcharts 9.1.0</desc><defs aria-hidden="true"><clipPath id="highcharts-2y5aqq4-17-"><rect x="0" y="0" width="580" height="314" fill="none"></rect></clipPath><pattern id="highcharts-pattern-1-16c54964111d3ad200-export" patternUnits="userSpaceOnUse" patternContentUnits="userSpaceOnUse" width="5" height="5" x="0" y="0"><path d="M 0 0 L 5 5 M 4.5 -0.5 L 5.5 0.5 M -0.5 4.5 L 0.5 5.5" stroke="#49a65e" stroke-width="2" fill="none"></path></pattern><pattern id="highcharts-pattern-1-172d7aac61494c415c-export" patternUnits="userSpaceOnUse" patternContentUnits="userSpaceOnUse" width="5" height="5" x="0" y="0"><path d="M 0 5 L 5 0 M -0.5 0.5 L 0.5 -0.5 M 4.5 5.5 L 5.5 4.5" stroke="#5f98cf" stroke-width="2" fill="none"></path></pattern><pattern id="highcharts-pattern-1-579c461c2a0bc720-export" patternUnits="userSpaceOnUse" patternContentUnits="userSpaceOnUse" width="5" height="5" x="0" y="0"><path d="M 1.5 0 L 1.5 5 M 4 0 L 4 5" stroke="#f45b5b" stroke-width="2" fill="none"></path></pattern><pattern id="highcharts-pattern-1-602c22c242f54b14-export" patternUnits="userSpaceOnUse" patternContentUnits="userSpaceOnUse" width="5" height="5" x="0" y="0"><path d="M 0 1.5 L 5 1.5 M 0 4 L 5 4" stroke="#434348" stroke-width="2" fill="none"></path></pattern><pattern id="highcharts-pattern-1-16f667bdc4f1e8948-export" patternUnits="userSpaceOnUse" patternContentUnits="userSpaceOnUse" width="5" height="5" x="0" y="0"><path d="M 0 1.5 L 2.5 1.5 L 2.5 0 M 2.5 5 L 2.5 3.5 L 5 3.5" stroke="#708090" stroke-width="2" fill="none"></path></pattern></defs><rect fill="#ffffff" class="highcharts-background" x="0" y="0" width="600" height="400" rx="0" ry="0" aria-hidden="true"></rect><rect fill="none" class="highcharts-plot-background" x="10" y="71" width="580" height="314" aria-hidden="true"></rect><rect fill="none" class="highcharts-plot-border" data-z-index="1" x="10" y="71" width="580" height="314" aria-hidden="true"></rect><g class="highcharts-series-group" data-z-index="3" aria-hidden="false"><g class="highcharts-series highcharts-series-0 highcharts-pie-series" data-z-index="0.1" opacity="1" transform="translate(10,71) scale(1 1)" aria-hidden="false" aria-label=""><path fill="url(#highcharts-pattern-1-16c54964111d3ad200-export)" d="M 289.97331881031596 42.00000271712173 A 131 131 0 0 1 363.07871227880264 281.72213119541016 L 290 173 A 0 0 0 0 0 290 173 Z" transform="translate(0,0)" stroke="#ffffff" stroke-width="3" opacity="1" stroke-linejoin="round" class="highcharts-point highcharts-color-0" tabindex="-1" role="img" aria-label="1. NVDA, 40.6%. This is the most used desktop screen reader" style="outline: 0px;"></path><path fill="url(#highcharts-pattern-1-172d7aac61494c415c-export)" d="M 362.9699536263745 281.7951555344481 A 131 131 0 0 1 167.27828270764502 127.1700959545484 L 290 173 A 0 0 0 0 0 290 173 Z" transform="translate(0,0)" stroke="#ffffff" stroke-width="3" opacity="1" stroke-linejoin="round" class="highcharts-point highcharts-color-1" tabindex="-1" role="img" aria-label="2. JAWS, 40.1%." style="outline: 0px;"></path><path fill="url(#highcharts-pattern-1-579c461c2a0bc720-export)" d="M 167.3241739649057 127.0473971726598 A 131 131 0 0 1 238.5775799405087 52.51458712680099 L 290 173 A 0 0 0 0 0 290 173 Z" transform="translate(0,0)" stroke="#ffffff" stroke-width="3" opacity="1" stroke-linejoin="round" class="highcharts-point highcharts-color-2" tabindex="-1" role="img" aria-label="3. VoiceOver, 12.9%." style="outline: 0px;"></path><path fill="url(#highcharts-pattern-1-602c22c242f54b14-export)" d="M 238.69809104450894 52.4632249580133 A 131 131 0 0 1 254.12625590142522 47.00764116681532 L 290 173 A 0 0 0 0 0 290 173 Z" transform="translate(0,0)" stroke="#ffffff" stroke-width="3" opacity="1" stroke-linejoin="round" class="highcharts-point highcharts-color-3" tabindex="-1" role="img" aria-label="4. ZoomText, 2%." style="outline: 0px;"></path><path fill="url(#highcharts-pattern-1-16f667bdc4f1e8948-export)" d="M 254.25226617613026 46.97183042486985 A 131 131 0 0 1 289.8180436281126 42.00012636693603 L 290 173 A 0 0 0 0 0 290 173 Z" transform="translate(0,0)" stroke="#ffffff" stroke-width="3" opacity="1" stroke-linejoin="round" class="highcharts-point highcharts-color-4" tabindex="-1" role="img" aria-label="5. Other, 4.4%." style="outline: 0px;"></path></g><g class="highcharts-markers highcharts-series-0 highcharts-pie-series" data-z-index="0.1" opacity="1" transform="translate(10,71) scale(1 1)" aria-hidden="true"></g></g><text x="300" text-anchor="middle" class="highcharts-title" data-z-index="4" style="color:#333333;font-size:18px;fill:#333333;" y="24" aria-hidden="true">Primary desktop/laptop screen readers</text><text x="300" text-anchor="middle" class="highcharts-subtitle" data-z-index="4" style="color:#666666;fill:#666666;" y="52" aria-hidden="true">Source: WebAIM. Click on point to visit official website</text><text x="10" text-anchor="start" class="highcharts-caption" data-z-index="4" style="color:#666666;fill:#666666;" y="397" aria-hidden="true"></text><g class="highcharts-data-labels highcharts-series-0 highcharts-pie-series" data-z-index="6" opacity="1" transform="translate(10,71) scale(1 1)" aria-hidden="true"><path fill="none" class="highcharts-data-label-connector highcharts-color-0" stroke="#777" stroke-width="1" d="M 449.03064030097164 126.14317714064818 C 444.03064030097164 126.14317714064818 426.8098233729127 131.38182814355707 421.06955106355974 133.1280451445267 L 415.32927875420677 134.87426214549635"></path><path fill="none" class="highcharts-data-label-connector highcharts-color-1" stroke="#777" stroke-width="1" d="M 185.1273919657745 299.27930220127905 C 190.1273919657745 299.27930220127905 201.29327360935252 285.1611193464777 205.01523415721186 280.4550583948772 L 208.7371947050712 275.7489974432767"></path><path fill="none" class="highcharts-data-label-connector highcharts-color-2" stroke="#777" stroke-width="1" d="M 168.67997250061063 61.686697998211834 C 173.67997250061063 61.686697998211834 186.6846960719709 74.13166343940553 191.019603929091 78.27998525313677 L 195.3545117862111 82.42830706686802"></path><path fill="none" class="highcharts-data-label-connector highcharts-color-3" stroke="#777" stroke-width="1" d="M 200.43050195253613 36 C 205.43050195253613 36 242.40680513321286 38.1523533673204 244.40372240035077 43.81029658267759 L 246.4006396674887 49.46823979803477"></path><path fill="none" class="highcharts-data-label-connector highcharts-color-4" stroke="#777" stroke-width="1" d="M 262.81576319977336 12 C 267.81576319977336 12 270.2959884320967 31.364016125378868 271.1227301762045 37.306784679558774 L 271.94947192031236 43.24955323373868"></path><g class="highcharts-label highcharts-data-label highcharts-data-label-color-0" data-z-index="1" style="cursor:pointer;" transform="translate(454,116)"><text x="5" data-z-index="1" y="16" style="color:#000000;font-size:11px;font-weight:bold;fill:#000000;"><tspan class="highcharts-text-outline" fill="#FFFFFF" stroke="#FFFFFF" stroke-width="2px" stroke-linejoin="round" style=""><tspan style="font-weight:bold;">NVDA</tspan>: 40.6 %<tspan x="5" y="16">​</tspan></tspan><tspan style="font-weight:bold;">NVDA</tspan>: 40.6 %</text></g><g class="highcharts-label highcharts-data-label highcharts-data-label-color-1" data-z-index="1" style="cursor:pointer;" transform="translate(96,289)"><text x="5" data-z-index="1" y="16" style="color:#000000;font-size:11px;font-weight:bold;fill:#000000;"><tspan class="highcharts-text-outline" fill="#FFFFFF" stroke="#FFFFFF" stroke-width="2px" stroke-linejoin="round" style=""><tspan style="font-weight:bold;">JAWS</tspan>: 40.1 %<tspan x="5" y="16">​</tspan></tspan><tspan style="font-weight:bold;">JAWS</tspan>: 40.1 %</text></g><g class="highcharts-label highcharts-data-label highcharts-data-label-color-2" data-z-index="1" style="cursor:pointer;" transform="translate(52,52)"><text x="5" data-z-index="1" y="16" style="color:#000000;font-size:11px;font-weight:bold;fill:#000000;"><tspan class="highcharts-text-outline" fill="#FFFFFF" stroke="#FFFFFF" stroke-width="2px" stroke-linejoin="round" style=""><tspan style="font-weight:bold;">VoiceOver</tspan>: 12.9 %<tspan x="5" y="16">​</tspan></tspan><tspan style="font-weight:bold;">VoiceOver</tspan>: 12.9 %</text></g><g class="highcharts-label highcharts-data-label highcharts-data-label-color-3" data-z-index="1" style="cursor:pointer;" transform="translate(92,26)"><text x="5" data-z-index="1" y="16" style="color:#000000;font-size:11px;font-weight:bold;fill:#000000;"><tspan class="highcharts-text-outline" fill="#FFFFFF" stroke="#FFFFFF" stroke-width="2px" stroke-linejoin="round" style=""><tspan style="font-weight:bold;">ZoomText</tspan>: 2.0 %<tspan x="5" y="16">​</tspan></tspan><tspan style="font-weight:bold;">ZoomText</tspan>: 2.0 %</text></g><g class="highcharts-label highcharts-data-label highcharts-data-label-color-4" data-z-index="1" style="cursor:pointer;" transform="translate(179,2)"><text x="5" data-z-index="1" y="16" style="color:#000000;font-size:11px;font-weight:bold;fill:#000000;"><tspan class="highcharts-text-outline" fill="#FFFFFF" stroke="#FFFFFF" stroke-width="2px" stroke-linejoin="round" style=""><tspan style="font-weight:bold;">Other</tspan>: 4.4 %<tspan x="5" y="16">​</tspan></tspan><tspan style="font-weight:bold;">Other</tspan>: 4.4 %</text></g></g><g class="highcharts-legend" data-z-index="7" aria-hidden="true"><rect fill="none" class="highcharts-legend-box" rx="0" ry="0" x="0" y="0" width="8" height="8" visibility="hidden"></rect><g data-z-index="1"><g></g></g></g><text x="590" class="highcharts-credits" text-anchor="end" data-z-index="8" style="cursor:pointer;color:#999999;font-size:9px;fill:#999999;" y="395" aria-label="Chart credits: Highcharts.com" aria-hidden="false">Highcharts.com</text></svg>