<svg version="1.1" viewBox="0 0 24 24" xmlns="http://www.w3.org/2000/svg">
  <defs>
    <clipPath id="clip">
      <path d="m1 2v20h22v-20zm10.939 5a4 4 0 0 1 0.061 0 4 4 0 0 1 4 4 4 4 0 0 1-4 4 4 4 0 0 1-4-4 4 4 0 0 1 3.939-4z"/>
    </clipPath>
    <linearGradient id="linearGradient2166" x1="12" x2="12" y1="12" y2="17" gradientTransform="matrix(1,0,0,-1,23.857,28.399)" gradientUnits="userSpaceOnUse">
      <stop stop-color="#75d305" offset="0"/>
      <stop stop-color="#8bf907" offset="1"/>
    </linearGradient>
    <linearGradient id="linearGradient2158" x1="12.5" x2="17" y1="11.13" y2="8" gradientTransform="matrix(1,0,0,-1,23.857,28.399)" gradientUnits="userSpaceOnUse">
      <stop stop-color="#e7c205" offset="0"/>
      <stop stop-color="#fff41c" offset="1"/>
    </linearGradient>
    <linearGradient id="linearGradient2174" x1="11.5" x2="7" y1="11.13" y2="8" gradientTransform="matrix(1,0,0,-1,23.857,28.399)" gradientUnits="userSpaceOnUse">
      <stop stop-color="#3d99fd" offset="0"/>
      <stop stop-color="#4accff" offset="1"/>
    </linearGradient>
    <clipPath id="clipPath1041-9-6-6-4-50">
      <path fill="#707070" d="m1 2v20h22v-20zm10.939 5a4 4 0 0 1 0.061 0 4 4 0 0 1 4 4 4 4 0 0 1-4 4 4 4 0 0 1-4-4 4 4 0 0 1 3.939-4z" fill-opacity=".43925"/>
    </clipPath>
    <clipPath id="clipPath976">
      <circle r="0" cx="35.857" cy="17">
        <animate id="anim"
                 attributeName="r" begin="1s; anim4.end + 8s" dur="1500ms" from="0" to="10"
                 calcMode="spline"
                 keyTimes="0; 1"
                 keySplines="0.4, 0.2, 0.25, 1.0"
                 fill="freeze" />
        <animate id="anim3" attributeName="r" begin="anim2.end" dur="100ms" from="10" to="0" fill="freeze" />
      </circle>
    </clipPath>
  </defs>
  <g>
    <path fill="#b9b8b1" d="m12 12-3.326-1.66a4 4 0 0 1 3.326-1.7794 4 4 0 0 1 3.326 1.7794z"/>
    <path fill="#b9b8b1" d="m12.5 16.53v-3.66l3.273-1.64a4 4 0 0 1 0.227 1.33 4 4 0 0 1-3.5 3.97z"/>
    <path fill="#b9b8b1" d="m11.5 16.53a4 4 0 0 1-3.5-3.97 4 4 0 0 1 0.227-1.33l3.273 1.64z"/>
    <g fill="none" stroke="#b9b8b1" transform="matrix(1,0,0,-1,0,23.56)" clip-path="url(#clip)">
      <circle r="4" cx="15.586" cy="8.7843"/>
      <circle r="4" transform="scale(-1,1)" cx="-8.414" cy="8.7843"/>
      <circle r="4" cx="12.017" cy="14.73"/>
    </g>
  </g>
  <g transform="translate(-23.857,-4.399)" clip-path="url(#clipPath976)">

    <animate id="anim2"
             attributeName="opacity" begin="anim.end + 5s" dur="1500ms" from="1" to="0"
             calcMode="spline"
             keyTimes="0; 1"
             keySplines="0.4, 0.2, 0.25, 1.0"
             fill="freeze" />
    <animate id="anim4" attributeName="opacity" begin="anim3.end" dur="100ms" from="0" to="1" fill="freeze" />

    <path fill="url(#linearGradient2166)" d="m35.857 16.399-3.326-1.66a4 4 0 0 1 3.326-1.78 4 4 0 0 1 3.326 1.78z"/>
    <path fill="url(#linearGradient2158)" d="m36.357 20.929v-3.66l3.273-1.64a4 4 0 0 1 0.227 1.33 4 4 0 0 1-3.5 3.97z"/>
    <path fill="url(#linearGradient2174)" d="m35.357 20.929a4 4 0 0 1-3.5-3.97 4 4 0 0 1 0.227-1.33l3.273 1.64z"/>
    <g fill="none" stroke-linejoin="bevel" transform="matrix(1,0,0,-1,23.857,27.959)" clip-path="url(#clipPath1041-9-6-6-4-50)">
      <circle r="4" stroke="#e7c205" cx="15.586" cy="8.7843"/>
      <circle r="4" stroke="#75d305" cx="12.017" cy="14.73"/>
      <circle r="4" stroke="#3d99fd" transform="scale(-1,1)" cx="-8.414" cy="8.7843"/>
    </g>
  </g>
</svg>
